# xmcd
#
# Track frame offsets: 
#        150
#        21001
#        45441
#        61855
#        81593
#        107046
#        118468
#        136344
#        155640
#        175210
#        197839
#        222469
#
# Disc length: 3367 seconds
#
# Revision: 0
# Processed by: cddbd v1.5.2PL0 Copyright (c) Steve Scherf et al.
# Submitted via: ExactAudioCopy v0.99pb5
#
DISCID=af0d250c
DTITLE=Huojuva lato - Lähde länteen!
DYEAR=2010
DGENRE=Country
TTITLE0=Elän mun unelmaa
TTITLE1=Saattue Murmanskiin
TTITLE2=Äidit, älkää kasvattako pojista muusikoita
TTITLE3=Tex Willerin poika
TTITLE4=Balladi Seilin saaresta
TTITLE5=Kolmisiipinen lokki
TTITLE6=Lähde länteen!
TTITLE7=Outokummun kupari
TTITLE8=Sydänkesän vihreät niityt
TTITLE9=Hullu suomenhevonen
TTITLE10=Tuuli kuljettaa (Kainin poika)
TTITLE11=Syvärin jouluyö
EXTD=
EXTT0=
EXTT1=
EXTT2=
EXTT3=
EXTT4=
EXTT5=
EXTT6=
EXTT7=
EXTT8=
EXTT9=
EXTT10=
EXTT11=
PLAYORDER=
